<?xml version="1.0" standalone="no"?>
<!DOCTYPE svg PUBLIC "-//W3C//DTD SVG 20010904//EN"
 "http://www.w3.org/TR/2001/REC-SVG-20010904/DTD/svg10.dtd">
<svg version="1.0" xmlns="http://www.w3.org/2000/svg"
 width="2500.000000pt" height="2500.000000pt" viewBox="0 0 2500.000000 2500.000000"
 preserveAspectRatio="xMidYMid meet">

<g transform="translate(0.000000,2500.000000) scale(0.100000,-0.100000)"
fill="#000000" stroke="none">
<path d="M9110 14130 l0 -130 418 0 418 0 46 -47 c72 -73 90 -125 96 -269 3
-80 0 -134 -8 -160 -18 -57 -78 -141 -128 -180 l-45 -34 -191 0 c-105 0 -208
-5 -228 -10 -69 -20 -128 -121 -128 -219 0 -62 54 -190 119 -283 76 -109 201
-256 644 -756 l402 -453 27 33 c15 18 28 37 28 41 0 10 -438 541 -564 682
-107 120 -173 243 -182 340 l-5 60 51 30 c61 36 177 147 279 268 85 101 108
115 291 176 162 55 219 61 288 31 57 -25 115 -82 140 -139 22 -50 21 -189 -2
-266 -32 -106 -92 -209 -162 -274 l-63 -60 132 -105 c132 -104 132 -104 149
-83 36 46 80 127 116 213 l37 89 -1 180 c-1 158 -3 187 -22 239 -60 166 -186
321 -305 377 -76 35 -190 58 -293 59 l-71 0 -6 123 c-7 125 -30 242 -66 335
-12 29 -21 55 -21 57 0 3 234 5 520 5 l520 0 0 130 0 130 -1115 0 -1115 0 0
-130z"/>
<path d="M14300 14203 c-68 -129 -196 -268 -287 -311 -26 -12 -33 -22 -33 -44
l0 -28 100 0 99 0 3 -397 c3 -381 4 -400 24 -444 27 -58 79 -110 140 -140 41
-20 64 -24 139 -24 82 0 97 3 155 32 36 18 87 54 113 81 43 44 48 52 38 71
-11 21 -13 20 -62 -19 -118 -93 -261 -77 -319 35 l-25 49 -3 378 -3 378 185 0
186 0 0 40 0 40 -185 0 -185 0 0 180 0 180 -24 0 c-20 0 -31 -12 -56 -57z"/>
<path d="M11870 13919 c-185 -36 -364 -219 -405 -416 -57 -268 53 -517 275
-626 236 -116 486 -81 653 92 58 60 67 74 67 106 l0 37 -82 -77 c-46 -41 -108
-88 -138 -103 -48 -24 -66 -27 -150 -27 -84 1 -102 4 -155 30 -158 76 -254
244 -272 473 l-6 82 393 0 393 0 -6 60 c-15 170 -169 330 -355 369 -61 13
-147 13 -212 0z m177 -64 c102 -30 178 -130 190 -251 l6 -54 -292 0 -292 0 6
48 c29 200 195 312 382 257z"/>
<path d="M12740 13909 c-74 -9 -141 -18 -147 -18 -7 -1 -13 -12 -13 -25 0 -21
5 -24 56 -29 78 -8 100 -25 114 -89 17 -75 9 -750 -9 -795 -14 -36 -69 -63
-126 -63 -31 0 -35 -3 -35 -25 l0 -25 280 0 280 0 0 24 c0 21 -6 24 -52 29
-68 8 -100 33 -115 88 -7 28 -12 149 -12 342 l-1 297 73 74 c39 40 91 83 115
95 58 29 130 37 189 20 61 -17 133 -87 151 -145 15 -51 17 -669 2 -708 -13
-36 -50 -56 -114 -63 -51 -5 -56 -8 -56 -29 l0 -24 280 0 280 0 0 24 c0 20 -6
24 -50 29 -63 8 -86 20 -107 60 -15 28 -18 76 -23 372 -5 250 -10 349 -20 375
-59 152 -200 240 -364 227 -96 -8 -196 -58 -287 -144 l-69 -65 0 106 0 106
-42 -1 c-24 -1 -104 -10 -178 -20z"/>
<path d="M16535 12704 c-66 -7 -128 -13 -137 -13 -11 -1 -18 -9 -18 -20 0 -16
9 -19 65 -23 51 -3 70 -9 88 -26 l22 -23 3 -650 c2 -434 -1 -663 -8 -690 -13
-46 -49 -69 -110 -69 -33 0 -40 -3 -40 -20 0 -19 7 -20 245 -20 233 0 245 1
245 19 0 15 -10 19 -56 23 -39 3 -61 11 -77 27 l-22 22 -3 739 -2 740 -38 -1
c-20 -1 -91 -7 -157 -15z"/>
<path d="M11273 12600 c-40 -24 -53 -48 -53 -100 0 -48 22 -85 61 -106 79 -40
169 16 169 106 0 94 -97 149 -177 100z"/>
<path d="M11650 12561 c0 -14 10 -21 38 -26 64 -11 118 -50 144 -102 l23 -48
0 -540 c0 -513 -1 -542 -19 -579 -21 -42 -78 -75 -128 -76 -21 0 -28 -5 -28
-20 0 -19 7 -20 220 -20 213 0 220 1 220 20 0 16 -7 20 -32 20 -51 1 -114 34
-135 72 -17 31 -18 74 -21 582 l-3 549 78 -95 c43 -52 271 -332 508 -621 336
-413 434 -527 452 -527 l22 0 3 643 c3 598 4 644 21 675 20 36 83 71 130 72
20 0 27 5 27 20 0 19 -7 20 -215 20 -203 0 -215 -1 -215 -19 0 -14 10 -20 40
-24 83 -11 116 -51 130 -158 11 -90 13 -899 2 -899 -5 0 -208 247 -453 550
l-444 550 -182 0 c-173 0 -183 -1 -183 -19z"/>
<path d="M13683 12035 c-81 -22 -132 -52 -195 -116 -175 -175 -183 -469 -17
-644 95 -101 250 -155 401 -141 107 10 169 38 249 115 59 56 69 71 69 100 l0
34 -79 -76 c-87 -83 -139 -107 -232 -107 -189 0 -348 198 -349 433 l0 57 326
0 326 0 -6 48 c-9 64 -59 164 -101 200 -111 98 -256 133 -392 97z m168 -46
c82 -25 145 -105 156 -200 l6 -49 -242 0 -241 0 0 23 c0 38 19 91 49 138 52
83 166 119 272 88z"/>
<path d="M14445 12034 c-60 -7 -118 -13 -127 -13 -11 -1 -18 -9 -18 -20 0 -15
10 -19 58 -24 67 -7 88 -26 97 -90 3 -23 5 -331 3 -684 l-3 -643 -27 -26 c-19
-20 -39 -28 -77 -32 -41 -4 -51 -8 -51 -23 0 -18 12 -19 240 -19 233 0 240 1
240 20 0 15 -7 20 -29 20 -15 0 -42 5 -60 11 -59 21 -61 33 -61 394 l0 327 33
-22 c97 -64 209 -91 309 -72 168 31 300 154 342 317 19 73 20 213 2 280 -41
157 -144 264 -286 301 -126 32 -236 3 -347 -93 l-53 -45 0 76 0 76 -37 -1
c-21 -1 -87 -7 -148 -15z m521 -98 c170 -79 239 -381 136 -594 -32 -67 -110
-138 -165 -153 -86 -23 -203 5 -275 65 l-32 28 2 281 3 282 63 47 c97 73 177
87 268 44z"/>
<path d="M15754 12041 c-101 -26 -198 -111 -228 -198 -18 -51 -18 -50 6 -55
12 -2 27 14 50 52 85 140 283 163 363 42 27 -41 54 -164 42 -194 -3 -9 -50
-29 -109 -47 -254 -79 -313 -109 -355 -177 -31 -52 -32 -140 -2 -201 73 -151
296 -177 418 -49 19 20 38 36 42 36 4 0 12 -14 19 -30 55 -134 252 -112 295
33 8 28 15 52 15 54 0 2 -11 3 -23 3 -19 0 -26 -8 -36 -40 -9 -29 -18 -41 -37
-46 -55 -14 -63 30 -64 343 0 218 -2 248 -20 296 -41 108 -141 175 -273 182
-39 2 -86 1 -103 -4z m236 -565 c0 -141 -1 -145 -26 -176 -15 -17 -49 -43 -77
-57 -114 -57 -217 7 -217 137 0 106 39 146 201 205 52 19 100 34 107 35 9 0
12 -35 12 -144z"/>
</g>
</svg>
