<svg xmlns="http://www.w3.org/2000/svg" width="49" height="54" viewBox="0 0 49 54" fill="none"><path d="M13.6385 53.576C10.6945 53.576 8.2625 52.9147 6.3425 51.592C4.46517 50.2693 3.05717 48.456 2.1185 46.152C1.2225 43.848 0.7745 41.224 0.7745 38.28V15.944C0.7745 12.9147 1.2225 10.2693 2.1185 8.008C3.0145 5.704 4.40117 3.912 6.2785 2.632C8.1985 1.352 10.6518 0.711998 13.6385 0.711998C16.6252 0.711998 19.0572 1.352 20.9345 2.632C22.8118 3.912 24.1985 5.704 25.0945 8.008C25.9905 10.2693 26.4385 12.9147 26.4385 15.944V38.28C26.4385 41.2667 25.9692 43.912 25.0305 46.216C24.1345 48.52 22.7478 50.3333 20.8705 51.656C18.9932 52.936 16.5825 53.576 13.6385 53.576ZM13.6385 47.944C15.2598 47.944 16.4758 47.4747 17.2865 46.536C18.1398 45.5973 18.7158 44.4027 19.0145 42.952C19.3558 41.4587 19.5265 39.9227 19.5265 38.344V15.88C19.5265 14.216 19.3772 12.6587 19.0785 11.208C18.7798 9.71466 18.2038 8.52 17.3505 7.624C16.5398 6.728 15.3025 6.28 13.6385 6.28C11.9745 6.28 10.7158 6.728 9.8625 7.624C9.00917 8.52 8.43317 9.71466 8.1345 11.208C7.83583 12.6587 7.6865 14.216 7.6865 15.88V38.344C7.6865 39.9227 7.83583 41.4587 8.1345 42.952C8.47583 44.4027 9.07317 45.5973 9.9265 46.536C10.8225 47.4747 12.0598 47.944 13.6385 47.944ZM41.569 53V10.12C41.5263 10.1627 41.0357 10.2907 40.097 10.504C39.201 10.7173 38.177 10.9307 37.025 11.144C35.873 11.3573 34.849 11.5493 33.953 11.72C33.057 11.8907 32.5877 11.976 32.545 11.976V6.792C33.2703 6.62133 34.1023 6.38667 35.041 6.088C36.0223 5.78933 37.0037 5.42666 37.985 5C39.009 4.57333 39.969 4.04 40.865 3.4C41.8037 2.76 42.593 2.01333 43.233 1.16H48.417V53H41.569Z" fill="#B8BABC"></path></svg>