<svg xmlns="http://www.w3.org/2000/svg" width="59" height="54" viewBox="0 0 59 54" fill="none"><path d="M13.451 53.576C10.507 53.576 8.075 52.9147 6.155 51.592C4.27767 50.2693 2.86967 48.456 1.931 46.152C1.035 43.848 0.587 41.224 0.587 38.28V15.944C0.587 12.9147 1.035 10.2693 1.931 8.008C2.827 5.704 4.21367 3.912 6.091 2.632C8.011 1.352 10.4643 0.711998 13.451 0.711998C16.4377 0.711998 18.8697 1.352 20.747 2.632C22.6243 3.912 24.011 5.704 24.907 8.008C25.803 10.2693 26.251 12.9147 26.251 15.944V38.28C26.251 41.2667 25.7817 43.912 24.843 46.216C23.947 48.52 22.5603 50.3333 20.683 51.656C18.8057 52.936 16.395 53.576 13.451 53.576ZM13.451 47.944C15.0723 47.944 16.2883 47.4747 17.099 46.536C17.9523 45.5973 18.5283 44.4027 18.827 42.952C19.1683 41.4587 19.339 39.9227 19.339 38.344V15.88C19.339 14.216 19.1897 12.6587 18.891 11.208C18.5923 9.71466 18.0163 8.52 17.163 7.624C16.3523 6.728 15.115 6.28 13.451 6.28C11.787 6.28 10.5283 6.728 9.675 7.624C8.82167 8.52 8.24567 9.71466 7.947 11.208C7.64833 12.6587 7.499 14.216 7.499 15.88V38.344C7.499 39.9227 7.64833 41.4587 7.947 42.952C8.28833 44.4027 8.88567 45.5973 9.739 46.536C10.635 47.4747 11.8723 47.944 13.451 47.944ZM33.0615 53V48.136L46.2455 27.592C47.2268 26.056 48.1228 24.6267 48.9335 23.304C49.7868 21.9813 50.4695 20.5947 50.9815 19.144C51.5362 17.6507 51.8135 15.944 51.8135 14.024C51.8135 11.6347 51.4295 9.75733 50.6615 8.392C49.8935 7.02666 48.5495 6.344 46.6295 6.344C45.0082 6.344 43.7495 6.792 42.8535 7.688C41.9575 8.584 41.3388 9.75733 40.9975 11.208C40.6562 12.6587 40.4855 14.216 40.4855 15.88V17.608H33.6375V15.816C33.6375 12.7013 34.0428 10.0347 34.8535 7.816C35.7068 5.55466 37.0508 3.80533 38.8855 2.568C40.7628 1.33066 43.2375 0.711998 46.3095 0.711998C50.4908 0.711998 53.6055 1.90666 55.6535 4.296C57.7015 6.64266 58.7255 9.90666 58.7255 14.088C58.7255 16.3067 58.4482 18.248 57.8935 19.912C57.3815 21.576 56.6988 23.1333 55.8455 24.584C54.9922 26.0347 54.0535 27.528 53.0295 29.064L41.1255 47.24H57.5095V53H33.0615Z" fill="#B8BABC"></path></svg>