<svg xmlns="http://www.w3.org/2000/svg" width="64" height="58" viewBox="0 0 64 58" fill="none"><path fill-rule="evenodd" clip-rule="evenodd" d="M58.2085 1H5.79221C4.52074 1.00181 3.30194 1.51487 2.40344 2.42654C1.50494 3.33821 1.00018 4.57396 1 5.86244V37.3659C1.00018 38.6543 1.50494 39.8901 2.40344 40.8018C3.30194 41.7134 4.52074 42.2265 5.79221 42.2283H25.2056C25.4469 42.2283 25.6783 42.1312 25.8489 41.9583C26.0196 41.7854 26.1154 41.5509 26.1154 41.3064C26.1154 41.0618 26.0196 40.8273 25.8489 40.6545C25.6783 40.4816 25.4469 40.3844 25.2056 40.3844H5.79221C5.00327 40.383 4.24713 40.0642 3.68989 39.4983C3.13266 38.9323 2.81987 38.1654 2.82023 37.3659V5.86244C2.81987 5.06294 3.13266 4.29601 3.68989 3.73004C4.24713 3.16407 5.00327 2.84532 5.79221 2.84387H58.2085C58.9974 2.8455 59.7534 3.16428 60.3106 3.73021C60.8678 4.29614 61.1806 5.063 61.1804 5.86244V37.3659C61.1804 37.6104 61.2763 37.8449 61.4469 38.0178C61.6175 38.1907 61.8489 38.2878 62.0902 38.2878C62.3315 38.2878 62.5629 38.1907 62.7335 38.0178C62.9042 37.8449 63 37.6104 63 37.3659V5.86244C62.9998 4.57408 62.4952 3.33844 61.5968 2.42679C60.6985 1.51514 59.4798 1.00199 58.2085 1ZM26.176 33.4936H8.70418C8.46289 33.4936 8.23149 33.5908 8.06087 33.7637C7.89025 33.9366 7.79437 34.1711 7.79437 34.4157C7.79437 34.6602 7.89025 34.8947 8.06087 35.0676C8.23149 35.2405 8.46289 35.3376 8.70418 35.3376H26.176C26.2955 35.3376 26.4138 35.3137 26.5242 35.2674C26.6346 35.2211 26.7349 35.1532 26.8194 35.0676C26.9039 34.982 26.9708 34.8803 27.0166 34.7685C27.0623 34.6566 27.0858 34.5367 27.0858 34.4157C27.0858 34.2946 27.0623 34.1746 27.0166 34.0628C26.9708 33.9509 26.9039 33.8494 26.8194 33.7637C26.7349 33.6781 26.6346 33.6102 26.5242 33.5638C26.4138 33.5175 26.2955 33.4936 26.176 33.4936ZM19.321 16.6936V12.7531C19.3197 11.9873 19.0189 11.2531 18.4844 10.7116C17.95 10.1701 17.2255 9.86546 16.4697 9.86438H10.6457C9.88994 9.86546 9.16544 10.1701 8.63096 10.7116C8.09649 11.2531 7.79562 11.9873 7.79437 12.7531V16.6936C7.79562 17.4595 8.09649 18.1937 8.63096 18.7352C9.16544 19.2767 9.88994 19.5813 10.6457 19.5824H16.4697C17.2255 19.5813 17.95 19.2767 18.4844 18.7352C19.0189 18.1937 19.3197 17.4595 19.321 16.6936ZM9.61666 16.6936V15.6488H10.6477C10.8899 15.6488 11.1222 15.5513 11.2934 15.3777C11.4647 15.2042 11.5609 14.9688 11.5609 14.7234C11.5609 14.478 11.4647 14.2426 11.2934 14.0691C11.1222 13.8955 10.8899 13.798 10.6477 13.798H9.61666V12.7531C9.61737 12.4762 9.72622 12.2109 9.91944 12.0151C10.1126 11.8193 10.3745 11.7091 10.6477 11.7083H12.6499V17.7385H10.6477C10.3741 17.7384 10.1118 17.6283 9.91812 17.4324C9.72447 17.2366 9.61536 16.9709 9.61464 16.6936H9.61666ZM16.4717 17.7385H14.4695V11.7083H16.4717C16.7449 11.7091 17.0068 11.8193 17.2 12.0151C17.3932 12.2109 17.5021 12.4762 17.5028 12.7531V13.798H16.4717C16.2295 13.798 15.9973 13.8955 15.826 14.0691C15.6548 14.2426 15.5586 14.478 15.5586 14.7234C15.5586 14.9688 15.6548 15.2042 15.826 15.3777C15.9973 15.5513 16.2295 15.6488 16.4717 15.6488H17.5028V16.6936C17.5021 16.9709 17.3929 17.2366 17.1993 17.4324C17.0056 17.6283 16.7433 17.7384 16.4697 17.7385H16.4717ZM7.79643 28.5083C7.80548 28.7467 7.90527 28.9722 8.07489 29.1376C8.24452 29.303 8.47079 29.3954 8.70619 29.3954C8.9416 29.3954 9.16787 29.303 9.33749 29.1376C9.50712 28.9722 9.6069 28.7467 9.61596 28.5083V26.5415C9.62067 26.4174 9.60066 26.2937 9.55706 26.1777C9.51346 26.0617 9.4472 25.9557 9.36226 25.8662C9.27731 25.7768 9.17542 25.7056 9.06269 25.657C8.94996 25.6084 8.82871 25.5834 8.70619 25.5834C8.58368 25.5834 8.46243 25.6084 8.3497 25.657C8.23697 25.7056 8.13508 25.7768 8.05013 25.8662C7.96519 25.9557 7.89893 26.0617 7.85533 26.1777C7.81173 26.2937 7.79172 26.4174 7.79643 26.5415V28.5083ZM10.7084 26.5415V28.5083C10.7175 28.7467 10.8173 28.9722 10.9869 29.1376C11.1565 29.303 11.3828 29.3954 11.6182 29.3954C11.8536 29.3954 12.0798 29.303 12.2495 29.1376C12.4191 28.9722 12.5189 28.7467 12.528 28.5083V26.5415C12.528 26.2964 12.4319 26.0614 12.2609 25.8881C12.0899 25.7148 11.858 25.6175 11.6161 25.6175C11.3743 25.6175 11.1424 25.7148 10.9714 25.8881C10.8004 26.0614 10.7044 26.2964 10.7044 26.5415H10.7084ZM13.6204 26.5415V28.5083C13.6294 28.7467 13.7292 28.9722 13.8989 29.1376C14.0685 29.303 14.2948 29.3954 14.5302 29.3954C14.7656 29.3954 14.9918 29.303 15.1614 29.1376C15.3311 28.9722 15.4309 28.7467 15.4399 28.5083V26.5415C15.4399 26.4203 15.4164 26.3002 15.3706 26.1883C15.3248 26.0763 15.2577 25.9745 15.1732 25.8888C15.0886 25.8031 14.9882 25.7351 14.8777 25.6887C14.7672 25.6424 14.6487 25.6185 14.5291 25.6185C14.4095 25.6185 14.2911 25.6424 14.1806 25.6887C14.0701 25.7351 13.9697 25.8031 13.8851 25.8888C13.8006 25.9745 13.7335 26.0763 13.6877 26.1883C13.6419 26.3002 13.6183 26.4203 13.6183 26.5415H13.6204ZM16.5323 26.5415V28.5083C16.5414 28.7467 16.6412 28.9722 16.8108 29.1376C16.9805 29.303 17.2067 29.3954 17.4421 29.3954C17.6775 29.3954 17.9038 29.303 18.0734 29.1376C18.243 28.9722 18.3428 28.7467 18.3519 28.5083V26.5415C18.3519 26.4203 18.3284 26.3002 18.2826 26.1883C18.2368 26.0763 18.1697 25.9745 18.0852 25.8888C18.0006 25.8031 17.9002 25.7351 17.7897 25.6887C17.6792 25.6424 17.5607 25.6185 17.4411 25.6185C17.3215 25.6185 17.2031 25.6424 17.0926 25.6887C16.9821 25.7351 16.8817 25.8031 16.7971 25.8888C16.7125 25.9745 16.6454 26.0763 16.5997 26.1883C16.5539 26.3002 16.5303 26.4203 16.5303 26.5415H16.5323ZM22.235 28.5083V26.5415C22.2397 26.4174 22.2197 26.2937 22.1761 26.1777C22.1325 26.0617 22.0662 25.9557 21.9813 25.8662C21.8963 25.7768 21.7944 25.7056 21.6817 25.657C21.569 25.6084 21.4477 25.5834 21.3252 25.5834C21.2027 25.5834 21.0815 25.6084 20.9687 25.657C20.856 25.7056 20.7541 25.7768 20.6692 25.8662C20.5842 25.9557 20.518 26.0617 20.4744 26.1777C20.4308 26.2937 20.4107 26.4174 20.4154 26.5415V28.5083C20.4295 28.7429 20.5314 28.9631 20.7003 29.1241C20.8692 29.2852 21.0923 29.3748 21.3242 29.3748C21.5561 29.3748 21.7792 29.2852 21.9481 29.1241C22.117 28.9631 22.2189 28.7429 22.233 28.5083H22.235ZM25.147 28.5083V26.5415C25.1517 26.4174 25.1316 26.2937 25.088 26.1777C25.0444 26.0617 24.9782 25.9557 24.8933 25.8662C24.8083 25.7768 24.7064 25.7056 24.5937 25.657C24.481 25.6084 24.3597 25.5834 24.2372 25.5834C24.1147 25.5834 23.9934 25.6084 23.8807 25.657C23.768 25.7056 23.6661 25.7768 23.5811 25.8662C23.4962 25.9557 23.4299 26.0617 23.3863 26.1777C23.3427 26.2937 23.3227 26.4174 23.3274 26.5415V28.5083C23.3415 28.7429 23.4434 28.9631 23.6123 29.1241C23.7812 29.2852 24.0043 29.3748 24.2362 29.3748C24.4681 29.3748 24.6912 29.2852 24.8601 29.1241C25.029 28.9631 25.1309 28.7429 25.145 28.5083H25.147ZM27.1485 25.6127C26.9064 25.6138 26.6746 25.7122 26.504 25.8863C26.3334 26.0605 26.238 26.2961 26.2387 26.5415V28.5083C26.2478 28.7467 26.3476 28.9722 26.5172 29.1376C26.6868 29.303 26.9131 29.3954 27.1485 29.3954C27.3839 29.3954 27.6101 29.303 27.7798 29.1376C27.9494 28.9722 28.0492 28.7467 28.0583 28.5083V26.5415C28.059 26.296 27.9635 26.0602 27.7928 25.8861C27.622 25.7119 27.3901 25.6136 27.1478 25.6127H27.1485ZM30.971 28.5083V26.5415C30.9757 26.4174 30.9556 26.2937 30.912 26.1777C30.8684 26.0617 30.8022 25.9557 30.7172 25.8662C30.6323 25.7768 30.5304 25.7056 30.4176 25.657C30.3049 25.6084 30.1837 25.5834 30.0611 25.5834C29.9386 25.5834 29.8174 25.6084 29.7046 25.657C29.5919 25.7056 29.49 25.7768 29.4051 25.8662C29.3201 25.9557 29.2539 26.0617 29.2103 26.1777C29.1667 26.2937 29.1467 26.4174 29.1514 26.5415V28.5083C29.1655 28.7429 29.2673 28.9631 29.4362 29.1241C29.6051 29.2852 29.8283 29.3748 30.0602 29.3748C30.292 29.3748 30.5152 29.2852 30.6841 29.1241C30.8529 28.9631 30.9548 28.7429 30.9689 28.5083H30.971ZM51.4148 19.5824C52.6865 19.5824 53.9061 19.0705 54.8053 18.1593C55.7045 17.248 56.2097 16.0121 56.2097 14.7234C56.2097 13.4347 55.7045 12.1988 54.8053 11.2876C53.9061 10.3763 52.6865 9.86438 51.4148 9.86438H45.5908C44.3191 9.86438 43.0995 10.3763 42.2003 11.2876C41.3011 12.1988 40.7959 13.4347 40.7959 14.7234C40.7959 16.0121 41.3011 17.248 42.2003 18.1593C43.0995 19.0705 44.3191 19.5824 45.5908 19.5824H51.4148ZM42.6182 14.72C42.6194 13.9215 42.933 13.1561 43.4903 12.5916C44.0475 12.027 44.8029 11.7094 45.5908 11.7083H51.4148C52.2039 11.7083 52.9606 12.026 53.5186 12.5914C54.0766 13.1569 54.3901 13.9237 54.3901 14.7234C54.3901 15.5231 54.0766 16.29 53.5186 16.8555C52.9606 17.4209 52.2039 17.7385 51.4148 17.7385H45.5908C44.8014 17.7376 44.0447 17.4192 43.487 16.8532C42.9292 16.2872 42.616 15.5199 42.6161 14.72H42.6182ZM43.6499 25.6127C40.5863 25.6095 37.5906 26.5271 35.0417 28.2496C32.4928 29.972 30.5053 32.422 29.3307 35.2893C28.1561 38.1567 27.8471 41.3126 28.4428 44.3579C29.0386 47.4033 30.5122 50.2012 32.6774 52.3977C34.8426 54.5941 37.602 56.0904 40.6065 56.6972C43.6111 57.3041 46.7257 56.9943 49.5565 55.807C52.3872 54.6196 54.8068 52.6082 56.5092 50.027C58.2116 47.4459 59.1203 44.411 59.1203 41.3064C59.1178 37.1474 57.4873 33.1593 54.5866 30.2171C51.6859 27.275 47.752 25.619 43.6479 25.6127H43.6499ZM43.6499 55.1561C40.9471 55.159 38.3041 54.3493 36.0554 52.8298C33.8066 51.3102 32.0531 49.1489 31.0166 46.6193C29.9802 44.0897 29.7074 41.3053 30.2328 38.6185C30.7581 35.9317 32.058 33.4632 33.968 31.5252C35.878 29.5872 38.3122 28.2668 40.9629 27.7309C43.6135 27.1951 46.3614 27.468 48.859 28.5151C51.3566 29.5621 53.4916 31.3363 54.994 33.6132C56.4964 35.8901 57.2987 38.5674 57.2994 41.3064C57.2972 44.9762 55.8588 48.4953 53.2995 51.0917C50.7403 53.6881 47.2693 55.1498 43.6479 55.1561H43.6499ZM51.0879 33.76C50.9161 33.5892 50.685 33.4936 50.4443 33.4936C50.2037 33.4936 49.9726 33.5892 49.8007 33.76L36.212 47.5483C36.1274 47.6339 36.0603 47.7356 36.0145 47.8475C35.9688 47.9594 35.9452 48.0794 35.9452 48.2005C35.9452 48.3216 35.9688 48.4416 36.0145 48.5535C36.0603 48.6654 36.1274 48.767 36.212 48.8527C36.2959 48.9392 36.3961 49.0079 36.5065 49.0548C36.6169 49.1017 36.7355 49.1258 36.8552 49.1258C36.975 49.1258 37.0935 49.1017 37.2039 49.0548C37.3143 49.0079 37.4145 48.9392 37.4985 48.8527L51.0879 35.0712C51.2583 34.8966 51.3538 34.6608 51.3534 34.4152C51.353 34.1695 51.2569 33.9341 51.0859 33.76H51.0879ZM39.2816 40.2615C40.1349 40.2627 40.9694 40.0074 41.6795 39.5279C42.3896 39.0483 42.9433 38.3661 43.2707 37.5676C43.5981 36.7691 43.6843 35.8901 43.5186 35.0418C43.3529 34.1936 42.9426 33.4142 42.3396 32.8024C41.7367 32.1905 40.9682 31.7736 40.1314 31.6044C39.2946 31.4353 38.427 31.5215 37.6386 31.8521C36.8501 32.1827 36.1761 32.743 35.702 33.4619C35.2278 34.1808 34.9747 35.026 34.9747 35.8907C34.9747 37.0483 35.4278 38.1586 36.2346 38.978C37.0414 39.7974 38.136 40.2589 39.2783 40.2615H39.2816ZM39.2816 33.3708C39.7754 33.3694 40.2584 33.5166 40.6695 33.7938C41.0806 34.0709 41.4012 34.4654 41.5908 34.9274C41.7803 35.3894 41.8303 35.898 41.7343 36.3888C41.6383 36.8796 41.4006 37.3305 41.0515 37.6843C40.7024 38.0381 40.2575 38.2789 39.7732 38.3762C39.2888 38.4734 38.787 38.4229 38.3311 38.2308C37.8752 38.0387 37.4858 37.7138 37.2123 37.2972C36.9388 36.8806 36.7936 36.3911 36.7949 35.8907C36.7951 35.223 37.0566 34.5827 37.5222 34.1102C37.9878 33.6378 38.6194 33.3718 39.2783 33.3708H39.2816ZM48.986 41.3678C48.1327 41.3667 47.2983 41.6221 46.5883 42.1018C45.8783 42.5814 45.3247 43.2636 44.9974 44.0622C44.6702 44.8607 44.584 45.7397 44.7498 46.5879C44.9156 47.4361 45.3259 48.2153 45.9289 48.8271C46.5319 49.439 47.3004 49.8558 48.1372 50.0249C48.974 50.1939 49.8415 50.1077 50.6299 49.7771C51.4183 49.4464 52.0922 48.8863 52.5664 48.1674C53.0405 47.4485 53.2936 46.6032 53.2936 45.7386C53.2936 44.5803 52.84 43.4694 52.0323 42.6499C51.2246 41.8304 50.1289 41.3693 48.986 41.3678ZM48.986 48.2585C48.4942 48.2584 48.0135 48.1105 47.6046 47.8335C47.1957 47.5565 46.8771 47.1629 46.689 46.7024C46.5009 46.2419 46.4518 45.7353 46.5478 45.2465C46.6438 44.7577 46.8807 44.3087 47.2285 43.9564C47.5763 43.604 48.0194 43.3641 48.5018 43.2669C48.9841 43.1698 49.4841 43.2197 49.9385 43.4104C50.3928 43.6012 50.7811 43.9242 51.0543 44.3386C51.3275 44.753 51.4734 45.2402 51.4734 45.7386C51.4732 46.407 51.2111 47.0479 50.7446 47.5205C50.2781 47.9931 49.6456 48.2585 48.986 48.2585Z" fill="#111827" stroke="#111827" stroke-width="0.7"></path></svg>