<svg xmlns="http://www.w3.org/2000/svg" width="64" height="55" viewBox="0 0 64 55" fill="none"><path fill-rule="evenodd" clip-rule="evenodd" d="M58.3156 54H5.68444C4.44286 53.9973 3.25285 53.4939 2.37492 52.6C1.49698 51.706 1.00263 50.4943 1 49.23V14.9749C1.00263 13.7106 1.49698 12.4989 2.37492 11.6049C3.25285 10.711 4.44286 10.2076 5.68444 10.2049H9.85601V8.03811C9.85842 7.81014 9.94897 7.59234 10.108 7.43186C10.267 7.27138 10.4818 7.18117 10.7057 7.18078H16.676C16.8993 7.18078 17.1135 7.27107 17.2714 7.43186C17.4293 7.59264 17.518 7.81073 17.518 8.03811V10.2049H23.144V7.09496C23.1462 5.47916 23.7775 3.93019 24.8996 2.78764C26.0216 1.6451 27.5428 1.00227 29.1296 1H34.8704C36.4572 1.00227 37.9784 1.6451 39.1004 2.78764C40.2225 3.93019 40.8538 5.47916 40.856 7.09496V10.2049H46.482V8.03811C46.482 7.81073 46.5707 7.59264 46.7286 7.43186C46.8865 7.27107 47.1007 7.18078 47.324 7.18078H53.2943C53.5182 7.18117 53.733 7.27138 53.892 7.43186C54.051 7.59234 54.1416 7.81014 54.144 8.03811V10.2049H58.3156C59.5571 10.2076 60.7471 10.711 61.6251 11.6049C62.503 12.4989 62.9974 13.7106 63 14.9749V49.23C62.9974 50.4943 62.503 51.706 61.6251 52.6C60.7471 53.4939 59.5571 53.9973 58.3156 54ZM5.68444 11.9196C4.88903 11.9208 4.12652 12.2431 3.56409 12.8158C3.00165 13.3885 2.68513 14.165 2.68391 14.9749V49.23C2.68513 50.0399 3.00165 50.8164 3.56409 51.3891C4.12652 51.9618 4.88903 52.2841 5.68444 52.2853H58.3156C59.111 52.2841 59.8735 51.9618 60.4359 51.3891C60.9984 50.8164 61.3149 50.0399 61.3161 49.23V14.9749C61.3149 14.165 60.9984 13.3885 60.4359 12.8158C59.8735 12.2431 59.111 11.9208 58.3156 11.9196H5.68444ZM48.1659 10.2049H52.4523V8.90325H48.1659V10.2049ZM24.8356 10.2049H39.1644V7.09496C39.1652 5.93433 38.7133 4.8209 37.9081 3.99948C37.1028 3.17806 36.0102 2.71591 34.8704 2.71467H29.1296C27.9898 2.71591 26.8972 3.17806 26.0919 3.99948C25.2867 4.8209 24.8348 5.93433 24.8356 7.09496V10.2049ZM11.5477 10.2049H15.8341V8.90325H11.5477V10.2049ZM28.7469 42.5271H21.5136C21.2903 42.5271 21.0761 42.4367 20.9182 42.2759C20.7603 42.1151 20.6716 41.8971 20.6716 41.6698V34.2964C20.6716 34.0691 20.7603 33.851 20.9182 33.6902C21.0761 33.5294 21.2903 33.4391 21.5136 33.4391H28.7469C28.9702 33.4391 29.1844 33.5294 29.3423 33.6902C29.5002 33.851 29.5889 34.0691 29.5889 34.2964V41.6698C29.5889 41.8971 29.5002 42.1151 29.3423 42.2759C29.1844 42.4367 28.9702 42.5271 28.7469 42.5271ZM22.3556 40.8123H27.905V35.1538H22.3556V40.8123ZM32.62 31.779C32.3969 31.7772 32.183 31.6879 32.023 31.5296L28.1499 27.5857C27.993 27.4237 27.9051 27.2053 27.9051 26.9778C27.9051 26.7502 27.993 26.5319 28.1499 26.3699L32.023 22.426C32.185 22.272 32.3984 22.1864 32.62 22.1864C32.8417 22.1864 33.055 22.272 33.217 22.426L37.0825 26.3699C37.1624 26.4489 37.2259 26.5433 37.2693 26.6477C37.3126 26.7521 37.335 26.8644 37.335 26.9778C37.335 27.0911 37.3126 27.2034 37.2693 27.3078C37.2259 27.4122 37.1624 27.5068 37.0825 27.5857L33.217 31.5296C33.057 31.6879 32.8432 31.7772 32.62 31.779ZM29.941 26.9778L32.62 29.7057L35.2991 26.9778L32.62 24.2498L29.941 26.9778ZM13.3847 31.7478C12.9589 31.7484 12.5462 31.5977 12.2178 31.3217C11.8894 31.0457 11.6659 30.6616 11.5859 30.2357L11.0731 27.4299C11.0696 27.4067 11.0598 27.385 11.045 27.3671C11.0301 27.3492 11.0108 27.3359 10.9889 27.3286L8.42465 26.175C8.11474 26.0336 7.84971 25.807 7.65913 25.5207C7.46855 25.2345 7.36005 24.8998 7.34574 24.5543C7.33144 24.2088 7.41188 23.8661 7.57812 23.5645C7.74436 23.2629 7.98981 23.0145 8.28693 22.8469L10.7516 21.4752C10.7703 21.4633 10.7862 21.4473 10.7981 21.4284C10.81 21.4096 10.8176 21.3883 10.8205 21.366L11.1037 18.529C11.1363 18.1826 11.264 17.8526 11.4723 17.5768C11.6805 17.3009 11.9609 17.0904 12.2812 16.9692C12.6014 16.848 12.9488 16.8211 13.2834 16.8916C13.618 16.962 13.9263 17.127 14.1731 17.3676L16.2091 19.324C16.237 19.3481 16.2721 19.3618 16.3086 19.363L19.0795 18.755C19.412 18.6833 19.7575 18.7075 20.0772 18.825C20.3969 18.9424 20.678 19.1486 20.8889 19.42C21.0998 19.6914 21.232 20.0174 21.2707 20.3612C21.3094 20.7051 21.253 21.0531 21.1079 21.366L19.9061 23.9458C19.8978 23.9671 19.8942 23.9901 19.8955 24.013C19.8968 24.0359 19.903 24.0582 19.9138 24.0784L21.3223 26.5491C21.4935 26.8485 21.579 27.1906 21.5691 27.5369C21.5593 27.8832 21.4544 28.2198 21.2664 28.5085C21.0784 28.7973 20.8148 29.0266 20.5054 29.1707C20.1961 29.3148 19.8532 29.3678 19.5158 29.3238L16.7297 28.9575C16.7082 28.9553 16.6866 28.9585 16.6666 28.9666C16.6466 28.9748 16.6289 28.9877 16.6148 29.0043L14.7395 31.1321C14.5694 31.3266 14.3607 31.4821 14.1271 31.5882C13.8935 31.6944 13.6405 31.7487 13.3847 31.7478ZM12.9254 18.5758C12.8902 18.5743 12.8559 18.5863 12.829 18.6094C12.8021 18.6324 12.7846 18.6649 12.78 18.7004L12.4968 21.5453C12.467 21.8445 12.3656 22.1318 12.2015 22.3818C12.0373 22.6318 11.8155 22.837 11.5553 22.9794L9.09824 24.3511C9.07412 24.3625 9.05434 24.3817 9.0419 24.4057C9.02946 24.4296 9.02507 24.457 9.02938 24.4837C9.02833 24.5089 9.03515 24.5338 9.0489 24.5548C9.06266 24.5759 9.08263 24.5919 9.1059 24.6006L11.6701 25.7619C11.9416 25.8807 12.1801 26.066 12.3644 26.3012C12.5487 26.5364 12.673 26.8143 12.7264 27.1103L13.2469 29.9162C13.2532 29.9488 13.2703 29.9782 13.2954 29.9995C13.3205 30.0208 13.3521 30.0326 13.3847 30.0331C13.4036 30.0328 13.4222 30.0285 13.4393 30.0204C13.4564 30.0124 13.4718 30.0007 13.4842 29.9863L15.3595 27.8585C15.5555 27.6345 15.8023 27.4627 16.0785 27.358C16.3547 27.2534 16.6518 27.2192 16.9439 27.2583L19.7301 27.6247C19.7578 27.6257 19.7853 27.6189 19.8096 27.6051C19.8339 27.5914 19.8541 27.5713 19.8679 27.5468C19.88 27.5269 19.8863 27.5039 19.8863 27.4805C19.8863 27.4571 19.88 27.4342 19.8679 27.4143L18.4596 24.9435C18.3101 24.683 18.2251 24.3894 18.2118 24.088C18.1984 23.7866 18.2571 23.4864 18.3829 23.2132L19.5847 20.6333C19.5957 20.6098 19.5999 20.5837 19.597 20.5579C19.594 20.532 19.584 20.5075 19.568 20.4872C19.552 20.4669 19.5308 20.4516 19.5067 20.443C19.4826 20.4344 19.4565 20.4328 19.4316 20.4385L16.6914 21.0386C16.4015 21.1005 16.1013 21.0904 15.8161 21.009C15.531 20.9276 15.2693 20.7773 15.0533 20.571L13.0172 18.6147C13.0055 18.6019 12.9913 18.5919 12.9755 18.5852C12.9596 18.5785 12.9425 18.5753 12.9254 18.5758ZM48.74 25.3722C47.9123 25.373 47.103 25.1237 46.4146 24.656C45.7261 24.1882 45.1894 23.523 44.8723 22.7446C44.5552 21.9661 44.472 21.1094 44.6333 20.2827C44.7946 19.4561 45.193 18.6968 45.7782 18.1008C46.3635 17.5049 47.1092 17.0992 47.921 16.9349C48.7328 16.7707 49.5742 16.8553 50.3387 17.1782C51.1032 17.5011 51.7565 18.0477 52.2158 18.7487C52.6752 19.4498 52.92 20.2739 52.9192 21.1167C52.9178 22.2449 52.4771 23.3264 51.6936 24.1241C50.9102 24.9219 49.848 25.3708 48.74 25.3722ZM48.74 18.5758C48.2465 18.5758 47.764 18.7247 47.3537 19.0039C46.9433 19.2831 46.6235 19.68 46.4346 20.1443C46.2458 20.6086 46.1963 21.1195 46.2926 21.6124C46.3889 22.1052 46.6266 22.5579 46.9755 22.9132C47.3245 23.2686 47.7691 23.5106 48.2532 23.6087C48.7372 23.7067 49.239 23.6564 49.6949 23.4641C50.1509 23.2718 50.5406 22.9461 50.8148 22.5283C51.0889 22.1105 51.2353 21.6192 51.2353 21.1167C51.2351 20.4428 50.9722 19.7966 50.5043 19.3202C50.0364 18.8437 49.4017 18.576 48.74 18.5758Z" fill="#111827" stroke="#111827" stroke-width="0.8"></path></svg>