<svg xmlns="http://www.w3.org/2000/svg" width="70" height="70" viewBox="0 0 70 70" fill="none"><path fill-rule="evenodd" clip-rule="evenodd" d="M27.1757 14.7242C25.6455 14.7217 24.149 15.1734 22.8755 16.0223C21.602 16.8711 20.6089 18.0789 20.0218 19.4928C19.4347 20.9066 19.28 22.4629 19.5773 23.9647C19.8746 25.4665 20.6105 26.8463 21.692 27.9295C22.7734 29.0127 24.1517 29.7505 25.6524 30.0496C27.1531 30.3487 28.7088 30.1956 30.1225 29.6097C31.5362 29.0238 32.7444 28.0314 33.5942 26.7582C34.444 25.485 34.8972 23.9882 34.8963 22.4572C34.8955 20.408 34.082 18.4428 32.6345 16.993C31.1871 15.5432 29.2239 14.7273 27.1757 14.7242ZM27.1757 27.9904C26.0824 27.9927 25.013 27.6706 24.1028 27.0647C23.1926 26.4587 22.4825 25.5963 22.0623 24.5864C21.6421 23.5766 21.5308 22.4647 21.7423 21.3915C21.9539 20.3183 22.4789 19.3321 23.2508 18.5575C24.0228 17.7829 25.007 17.2548 26.079 17.0401C27.151 16.8253 28.2626 16.9334 29.2731 17.3509C30.2836 17.7684 31.1477 18.4764 31.7559 19.3853C32.3642 20.2943 32.6892 21.3634 32.6901 22.4572C32.6901 23.9219 32.1096 25.3269 31.0759 26.3641C30.0422 27.4013 28.6397 27.9862 27.1757 27.9904ZM41.9346 7.67123C39.9735 5.70187 37.643 4.13923 35.0769 3.07302C32.5108 2.0068 29.7596 1.45801 26.981 1.45801C24.2025 1.45801 21.4512 2.0068 18.8851 3.07302C16.319 4.13923 13.9885 5.70187 12.0274 7.67123C4.6349 15.0768 3.71936 29.0148 10.0377 37.4615L26.981 61.9788L43.8984 37.4951C50.2452 29.0148 49.3263 15.0768 41.9346 7.67123ZM42.1101 36.2021L26.981 58.0997L11.8277 36.1684C6.09428 28.5026 6.91583 15.9164 13.59 9.23294C15.3477 7.47094 17.4354 6.073 19.7338 5.11922C22.0321 4.16544 24.4958 3.67456 26.984 3.67456C29.4721 3.67456 31.9359 4.16544 34.2342 5.11922C36.5325 6.073 38.6202 7.47094 40.378 9.23294C47.047 15.9164 47.8686 28.5026 42.1101 36.2021Z" fill="#111827" stroke="#111827"></path><path d="M45.2083 38.6458C50.4435 38.6458 54.6875 36.3606 54.6875 33.5417C54.6875 30.7227 50.4435 28.4375 45.2083 28.4375C39.9731 28.4375 35.7291 30.7227 35.7291 33.5417C35.7291 36.3606 39.9731 38.6458 45.2083 38.6458Z" fill="#EDF0F1"></path><path d="M30.5258 57.7922C33.7661 59.4159 37.4167 58.6891 38.6796 56.1689C39.9425 53.6486 38.3395 50.2893 35.0992 48.6656C31.8588 47.0419 28.2083 47.7686 26.9454 50.2889C25.6825 52.8091 27.2855 56.1685 30.5258 57.7922Z" fill="#EDF0F1"></path><path d="M39.7396 51.0413C43.9681 51.0413 47.3959 47.7768 47.3959 43.7497C47.3959 39.7226 43.9681 36.458 39.7396 36.458C35.5112 36.458 32.0834 39.7226 32.0834 43.7497C32.0834 47.7768 35.5112 51.0413 39.7396 51.0413Z" fill="#EDF0F1"></path><path fill-rule="evenodd" clip-rule="evenodd" d="M60.9718 62.5328L53.1523 54.764C55.3241 52.2945 56.5214 49.117 56.5196 45.8273C56.5326 42.7003 55.4753 39.6632 53.5237 37.2211C51.5721 34.7791 48.8438 33.0795 45.7928 32.4051C42.7418 31.7307 39.552 32.1222 36.7542 33.5144C33.9564 34.9066 31.7192 37.2155 30.415 40.0571C29.1108 42.8987 28.8182 46.1016 29.5857 49.1328C30.3533 52.164 32.1348 54.8408 34.6339 56.7178C37.1329 58.5948 40.1988 59.5587 43.3215 59.4494C46.4441 59.34 49.4352 58.1639 51.797 56.1166L59.6158 63.8854C59.7963 64.0642 60.0398 64.1651 60.2938 64.1663C60.4199 64.1674 60.5449 64.1431 60.6613 64.0948C60.7778 64.0466 60.8834 63.9754 60.9718 63.8854C61.15 63.7055 61.25 63.4624 61.25 63.209C61.25 62.9557 61.15 62.7127 60.9718 62.5328ZM31.0012 45.8273C30.9855 43.4896 31.6639 41.2 32.9502 39.2487C34.2365 37.2974 36.0729 35.7724 38.2264 34.867C40.38 33.9616 42.7536 33.7165 45.0465 34.163C47.3393 34.6095 49.448 35.7274 51.1052 37.3749C52.7624 39.0224 53.8934 41.1253 54.3548 43.4169C54.8162 45.7085 54.5872 48.0857 53.6969 50.2469C52.8065 52.4081 51.2949 54.256 49.3538 55.5563C47.4127 56.8566 45.1294 57.5508 42.7935 57.5507C39.6763 57.5601 36.683 56.3306 34.4711 54.1324C32.2592 51.9341 31.0098 48.9469 30.9975 45.8273H31.0012Z" fill="#111827" stroke="#111827"></path></svg>